{"title":"Tanu Weds Manu Returns (2015) Pre Dvd Rip - XviD - [1CD] - Team ","uid":11954005,"size":737798014,"categoryP":"video","categoryS":"other","magnet":"?xt=urn:btih:3af0ee39a3fc53e6a5ec59cbf9bba4739e3a9438&amp;dn=Tanu+Weds+Manu+Returns+%282015%29+Pre+Dvd+Rip+-+XviD+-+%5B1CD%5D+-+Team+&amp;tr=udp%3A%2F%2Ftracker.openbittorrent.com%3A80&amp;tr=udp%3A%2F%2Fopen.demonii.com%3A1337&amp;tr=udp%3A%2F%2Ftracker.coppersurfer.tk%3A6969&amp;tr=udp%3A%2F%2Fexodus.desync.com%3A6969","seeders":9,"leechers":3,"uploader":"SS132203","files":3,"time":1432306659,"description":"Tanu Weds Manu Returns (2015) Pre Dvd Rip - XviD - [1CD] - Team IcTv Exclusive\n &lt;a href=&quot;\nhttp://imgsparrow.co/image/47&quot; rel=&quot;nofollow&quot; target=&quot;_NEW&quot;&gt;\nhttp://imgsparrow.co/image/47&lt;/a&gt;\n &lt;a href=&quot;\nhttp://imgsparrow.co/image/bI&quot; rel=&quot;nofollow&quot; target=&quot;_NEW&quot;&gt;\nhttp://imgsparrow.co/image/bI&lt;/a&gt;\n &lt;a href=&quot;\nhttp://imgsparrow.co/image/9b&quot; rel=&quot;nofollow&quot; target=&quot;_NEW&quot;&gt;\nhttp://imgsparrow.co/image/9b&lt;/a&gt;\n\nAll Credit Goes To Intellect Clever &amp; IcTv\nSample Within Torrent\n\nMovie Info\nBanner : Eros International\nYear : 2015\nCast : R Madhavan and Kangana Ranaut\nVideo: XviD\nAudio : MP3\nGenre : Comedy, Romance\nSubtitles :Nope\nResolution : 640x272\nRuntime : 2hr 1min\nSource : Team IcTv\n\nFormat                      : AVI\nFormat/Info                 : Audio Video Interleave\nFile size                   : 692 MiB\nDuration                    : 2h 1mn\nOverall bit rate            : 795 Kbps\n\nVideo\nID                          : 0\nFormat                      : MPEG-4 Visual\nFormat profile              : Advanced Simple@L5\nFormat settings, BVOP       : 2\nFormat settings, QPel       : No\nFormat settings, GMC        : No warppoints\nFormat settings, Matrix     : Default (H.263)\nCodec ID                    : XVID\nCodec ID/Hint               : XviD\nDuration                    : 2h 1mn\nBit rate                    : 660 Kbps\nWidth                       : 640 pixels\nHeight                      : 272 pixels\nDisplay aspect ratio        : 2.35:1\nFrame rate                  : 25.000 fps\nColor space                 : YUV\nChroma subsampling          : 4:2:0\nBit depth                   : 8 bits\nScan type                   : Progressive\nCompression mode            : Lossy\nBits/(Pixel*Frame)          : 0.152\nStream size                 : 575 MiB (83%)\n\nAudio\nID                          : 1\nFormat                      : MPEG Audio\nFormat version              : Version 1\nFormat profile              : Layer 3\nMode                        : Joint stereo\nMode extension              : MS Stereo\nCodec ID                    : 55\nCodec ID/Hint               : MP3\nDuration                    : 2h 1mn\nBit rate mode               : Constant\nBit rate                    : 128 Kbps\nChannel(s)                  : 2 channels\nSampling rate               : 48.0 KHz\nCompression mode            : Lossy\nStream size                 : 111 MiB (16%)\n\nScreens : - \n &lt;a href=&quot;\nhttp://imgsparrow.co/image/bO&quot; rel=&quot;nofollow&quot; target=&quot;_NEW&quot;&gt;\nhttp://imgsparrow.co/image/bO&lt;/a&gt; &lt;a href=&quot;\nhttp://imgsparrow.co/image/bp&quot; rel=&quot;nofollow&quot; target=&quot;_NEW&quot;&gt;\nhttp://imgsparrow.co/image/bp&lt;/a&gt; &lt;a href=&quot;\nhttp://imgsparrow.co/image/b0&quot; rel=&quot;nofollow&quot; target=&quot;_NEW&quot;&gt;\nhttp://imgsparrow.co/image/b0&lt;/a&gt; &lt;a href=&quot;\nhttp://imgsparrow.co/image/bB&quot; rel=&quot;nofollow&quot; target=&quot;_NEW&quot;&gt;\nhttp://imgsparrow.co/image/bB&lt;/a&gt; &lt;a href=&quot;\nhttp://imgsparrow.co/image/bK&quot; rel=&quot;nofollow&quot; target=&quot;_NEW&quot;&gt;\nhttp://imgsparrow.co/image/bK&lt;/a&gt; &lt;a href=&quot;\nhttp://imgsparrow.co/image/b2&quot; rel=&quot;nofollow&quot; target=&quot;_NEW&quot;&gt;\nhttp://imgsparrow.co/image/b2&lt;/a&gt; &lt;a href=&quot;\nhttp://imgsparrow.co/image/b3&quot; rel=&quot;nofollow&quot; target=&quot;_NEW&quot;&gt;\nhttp://imgsparrow.co/image/b3&lt;/a&gt; &lt;a href=&quot;\nhttp://imgsparrow.co/image/bi&quot; rel=&quot;nofollow&quot; target=&quot;_NEW&quot;&gt;\nhttp://imgsparrow.co/image/bi&lt;/a&gt; &lt;a href=&quot;\nhttp://imgsparrow.co/image/bV&quot; rel=&quot;nofollow&quot; target=&quot;_NEW&quot;&gt;\nhttp://imgsparrow.co/image/bV&lt;/a&gt; &lt;a href=&quot;\nhttp://imgsparrow.co/image/bl&quot; rel=&quot;nofollow&quot; target=&quot;_NEW&quot;&gt;\nhttp://imgsparrow.co/image/bl&lt;/a&gt;\n &lt;a href=&quot;\nhttp://imgsparrow.co/image/N2&quot; rel=&quot;nofollow&quot; target=&quot;_NEW&quot;&gt;\nhttp://imgsparrow.co/image/N2&lt;/a&gt;","torrent":{"xt":"urn:btih:3af0ee39a3fc53e6a5ec59cbf9bba4739e3a9438","amp;dn":"Tanu+Weds+Manu+Returns+%282015%29+Pre+Dvd+Rip+-+XviD+-+%5B1CD%5D+-+Team+","amp;tr":["udp%3A%2F%2Ftracker.openbittorrent.com%3A80","udp%3A%2F%2Fopen.demonii.com%3A1337","udp%3A%2F%2Ftracker.coppersurfer.tk%3A6969","udp%3A%2F%2Fexodus.desync.com%3A6969"],"infoHash":"3af0ee39a3fc53e6a5ec59cbf9bba4739e3a9438","infoHashBuffer":{"type":"Buffer","data":[58,240,238,57,163,252,83,230,165,236,89,203,249,187,164,115,158,58,148,56]},"announce":[],"urlList":[]}}